{
  "accessors": [
    {
      "bufferView": 2,
      "componentType": 5126,
      "count": 4,
      "max": [
        20,
        20,
        0
      ],
      "min": [
        -20,
        -20,
        0
      ],
      "type": "VEC3"
    },
    {
      "bufferView": 2,
      "byteOffset": 48,
      "componentType": 5126,
      "count": 4,
      "max": [
        0,
        0,
        1
      ],
      "min": [
        0,
        0,
        1
      ],
      "type": "VEC3"
    },
    {
      "bufferView": 3,
      "componentType": 5126,
      "count": 4,
      "max": [
        1,
        0,
        0,
        1
      ],
      "min": [
        1,
        0,
        0,
        1
      ],
      "type": "VEC4"
    },
    {
      "bufferView": 1,
      "componentType": 5126,
      "count": 4,
      "max": [
        0.99949997663497925,
        0.99949997663497925
      ],
      "min": [
        0.00050000002374872565,
        0.00050000002374872565
      ],
      "type": "VEC2"
    },
    {
      "bufferView": 0,
      "componentType": 5125,
      "count": 6,
      "max": [
        3
      ],
      "min": [
        0
      ],
      "type": "SCALAR"
    },
    {
      "bufferView": 2,
      "byteOffset": 96,
      "componentType": 5126,
      "count": 450,
      "max": [
        19.785640716552734,
        -7.0469598770141602,
        5.9085497856140137
      ],
      "min": [
        12.970279693603516,
        -24.872539520263672,
        -0.5343400239944458
      ],
      "type": "VEC3"
    },
    {
      "bufferView": 2,
      "byteOffset": 5496,
      "componentType": 5126,
      "count": 450,
      "max": [
        0.98789495229721069,
        0.98121988773345947,
        0.99245268106460571
      ],
      "min": [
        -0.98882240056991577,
        -0.93657046556472778,
        -0.70090848207473755
      ],
      "type": "VEC3"
    },
    {
      "bufferView": 3,
      "byteOffset": 64,
      "componentType": 5126,
      "count": 450,
      "max": [
        0.9988219141960144,
        0.99862492084503174,
        0.15369848906993866,
        1
      ],
      "min": [
        -0.99991661310195923,
        -0.99787962436676025,
        -0.95562744140625,
        -1
      ],
      "type": "VEC4"
    },
    {
      "bufferView": 1,
      "byteOffset": 32,
      "componentType": 5126,
      "count": 450,
      "max": [
        0.89907002449035645,
        0.92545998096466064
      ],
      "min": [
        -0.39436998963356018,
        0.39524000883102417
      ],
      "type": "VEC2"
    },
    {
      "bufferView": 0,
      "byteOffset": 24,
      "componentType": 5125,
      "count": 774,
      "max": [
        449
      ],
      "min": [
        0
      ],
      "type": "SCALAR"
    },
    {
      "bufferView": 2,
      "byteOffset": 10896,
      "componentType": 5126,
      "count": 7273,
      "max": [
        10.850359916687012,
        8.9745197296142578,
        11.357620239257812
      ],
      "min": [
        -11.051119804382324,
        -9.5302495956420898,
        0
      ],
      "type": "VEC3"
    },
    {
      "bufferView": 2,
      "byteOffset": 98172,
      "componentType": 5126,
      "count": 7273,
      "max": [
        1,
        1,
        1
      ],
      "min": [
        -1,
        -1,
        -1
      ],
      "type": "VEC3"
    },
    {
      "bufferView": 3,
      "byteOffset": 7264,
      "componentType": 5126,
      "count": 7273,
      "max": [
        0.99999988079071045,
        1,
        1,
        1
      ],
      "min": [
        -1,
        -1,
        -0.99950104951858521,
        -1
      ],
      "type": "VEC4"
    },
    {
      "bufferView": 1,
      "byteOffset": 3632,
      "componentType": 5126,
      "count": 7273,
      "max": [
        0.99377000331878662,
        1.0010299682617188
      ],
      "min": [
        0.00085999997099861503,
        0.005090000107884407
      ],
      "type": "VEC2"
    },
    {
      "bufferView": 0,
      "byteOffset": 3120,
      "componentType": 5125,
      "count": 14841,
      "max": [
        7272
      ],
      "min": [
        0
      ],
      "type": "SCALAR"
    },
    {
      "bufferView": 2,
      "byteOffset": 185448,
      "componentType": 5126,
      "count": 3560,
      "max": [
        9.17572021484375,
        8.2907495498657227,
        11.390239715576172
      ],
      "min": [
        -9.1272201538085938,
        -9.0234203338623047,
        -0.158160001039505
      ],
      "type": "VEC3"
    },
    {
      "bufferView": 2,
      "byteOffset": 228168,
      "componentType": 5126,
      "count": 3560,
      "max": [
        0.999991774559021,
        1,
        0.96615815162658691
      ],
      "min": [
        -0.999991774559021,
        -1,
        -0.81595849990844727
      ],
      "type": "VEC3"
    },
    {
      "bufferView": 3,
      "byteOffset": 123632,
      "componentType": 5126,
      "count": 3560,
      "max": [
        0.99980121850967407,
        0.99945396184921265,
        0.99998068809509277,
        1
      ],
      "min": [
        -1,
        -0.99992311000823975,
        -0.99995899200439453,
        -1
      ],
      "type": "VEC4"
    },
    {
      "bufferView": 1,
      "byteOffset": 61816,
      "componentType": 5126,
      "count": 3560,
      "max": [
        0.99814999103546143,
        0.99814999103546143
      ],
      "min": [
        0.0018500000005587935,
        0.0018500000005587935
      ],
      "type": "VEC2"
    },
    {
      "bufferView": 1,
      "byteOffset": 90296,
      "componentType": 5126,
      "count": 3560,
      "max": [
        0.98138999938964844,
        0.99853998422622681
      ],
      "min": [
        4.9999998736893758e-05,
        -0.0013299999991431832
      ],
      "type": "VEC2"
    },
    {
      "bufferView": 0,
      "byteOffset": 62484,
      "componentType": 5125,
      "count": 4380,
      "max": [
        3559
      ],
      "min": [
        0
      ],
      "type": "SCALAR"
    }
  ],
  "asset": {
    "extras": {
      "author": "StanislasDolcini (https://sketchfab.com/StanislasDolcini)",
      "license": "CC-BY-SA-4.0 (http://creativecommons.org/licenses/by-sa/4.0/)",
      "source": "https://sketchfab.com/models/f925a85a10d8451fb523121058564459",
      "title": "Brittonic Shooting Range"
    },
    "generator": "Sketchfab-3.19.5",
    "version": "2.0"
  },
  "bufferViews": [
    {
      "buffer": 0,
      "byteLength": 80004,
      "byteOffset": 0,
      "name": "floatBufferViews",
      "target": 34963
    },
    {
      "buffer": 0,
      "byteLength": 118776,
      "byteOffset": 80004,
      "byteStride": 8,
      "name": "floatBufferViews",
      "target": 34962
    },
    {
      "buffer": 0,
      "byteLength": 270888,
      "byteOffset": 198780,
      "byteStride": 12,
      "name": "floatBufferViews",
      "target": 34962
    },
    {
      "buffer": 0,
      "byteLength": 180592,
      "byteOffset": 469668,
      "byteStride": 16,
      "name": "floatBufferViews",
      "target": 34962
    }
  ],
  "buffers": [
    {
      "byteLength": 650260,
      "uri": "scene.bin"
    }
  ],
  "extensionsRequired": [
    "KHR_materials_pbrSpecularGlossiness"
  ],
  "extensionsUsed": [
    "KHR_materials_pbrSpecularGlossiness"
  ],
  "images": [
    {
      "uri": "textures/Nature_diffuse.png"
    },
    {
      "uri": "textures/BRIT_SHIELDS_occlusion.png"
    },
    {
      "uri": "textures/BRIT_SHIELDS_diffuse.png"
    },
    {
      "uri": "textures/BRIT_SHIELDS_normal.png"
    },
    {
      "uri": "textures/STRUCT_occlusion.png"
    },
    {
      "uri": "textures/STRUCT_diffuse.png"
    },
    {
      "uri": "textures/STRUCT_normal.png"
    },
    {
      "uri": "textures/Decal_diffuse.png"
    },
    {
      "uri": "textures/Decal_normal.png"
    }
  ],
  "materials": [
    {
      "doubleSided": true,
      "emissiveFactor": [
        0,
        0,
        0
      ],
      "extensions": {
        "KHR_materials_pbrSpecularGlossiness": {
          "diffuseFactor": [
            1,
            1,
            1,
            1
          ],
          "diffuseTexture": {
            "index": 2,
            "texCoord": 1
          },
          "glossinessFactor": 1,
          "specularFactor": [
            0,
            0,
            0
          ]
        }
      },
      "name": "BRIT_SHIELDS",
      "normalTexture": {
        "index": 3,
        "scale": 1,
        "texCoord": 1
      },
      "occlusionTexture": {
        "index": 1,
        "strength": 1,
        "texCoord": 0
      }
    },
    {
      "doubleSided": true,
      "emissiveFactor": [
        0,
        0,
        0
      ],
      "extensions": {
        "KHR_materials_pbrSpecularGlossiness": {
          "diffuseFactor": [
            1,
            1,
            1,
            1
          ],
          "diffuseTexture": {
            "index": 5,
            "texCoord": 0
          },
          "glossinessFactor": 1,
          "specularFactor": [
            0,
            0,
            0
          ]
        }
      },
      "name": "STRUCT",
      "normalTexture": {
        "index": 6,
        "scale": 1,
        "texCoord": 0
      },
      "occlusionTexture": {
        "index": 4,
        "strength": 1,
        "texCoord": 0
      }
    },
    {
      "alphaMode": "BLEND",
      "doubleSided": true,
      "emissiveFactor": [
        0,
        0,
        0
      ],
      "extensions": {
        "KHR_materials_pbrSpecularGlossiness": {
          "diffuseFactor": [
            1,
            1,
            1,
            1
          ],
          "diffuseTexture": {
            "index": 0,
            "texCoord": 0
          },
          "glossinessFactor": 0,
          "specularFactor": [
            0,
            0,
            0
          ]
        }
      },
      "name": "Nature"
    },
    {
      "alphaMode": "BLEND",
      "doubleSided": true,
      "emissiveFactor": [
        0,
        0,
        0
      ],
      "extensions": {
        "KHR_materials_pbrSpecularGlossiness": {
          "diffuseFactor": [
            1,
            1,
            1,
            1
          ],
          "diffuseTexture": {
            "index": 7,
            "texCoord": 0
          },
          "glossinessFactor": 0,
          "specularFactor": [
            0,
            0,
            0
          ]
        }
      },
      "name": "Decal",
      "normalTexture": {
        "index": 8,
        "scale": 1,
        "texCoord": 0
      }
    }
  ],
  "meshes": [
    {
      "name": "ground_decal_0",
      "primitives": [
        {
          "attributes": {
            "NORMAL": 1,
            "POSITION": 0,
            "TANGENT": 2,
            "TEXCOORD_0": 3
          },
          "indices": 4,
          "material": 3,
          "mode": 4
        }
      ]
    },
    {
      "name": "brit_range_nature_0",
      "primitives": [
        {
          "attributes": {
            "NORMAL": 6,
            "POSITION": 5,
            "TANGENT": 7,
            "TEXCOORD_0": 8
          },
          "indices": 9,
          "material": 2,
          "mode": 4
        }
      ]
    },
    {
      "name": "brit_range_struct_0",
      "primitives": [
        {
          "attributes": {
            "NORMAL": 11,
            "POSITION": 10,
            "TANGENT": 12,
            "TEXCOORD_0": 13
          },
          "indices": 14,
          "material": 1,
          "mode": 4
        }
      ]
    },
    {
      "name": "brit_range_struct.001_0",
      "primitives": [
        {
          "attributes": {
            "NORMAL": 16,
            "POSITION": 15,
            "TANGENT": 17,
            "TEXCOORD_0": 18,
            "TEXCOORD_1": 19
          },
          "indices": 20,
          "material": 0,
          "mode": 4
        }
      ]
    }
  ],
  "nodes": [
    {
      "children": [
        1
      ],
      "name": "RootNode (gltf orientation matrix)",
      "rotation": [
        -0.70710678118654746,
        -0,
        -0,
        0.70710678118654757
      ]
    },
    {
      "children": [
        2
      ],
      "name": "RootNode (model correction matrix)"
    },
    {
      "children": [
        3,
        5,
        7,
        9
      ],
      "name": "Root"
    },
    {
      "children": [
        4
      ],
      "matrix": [
        0.76280000000000014,
        0,
        0,
        0,
        0,
        0.60027000000000008,
        0,
        0,
        0,
        0,
        0.76280000000000014,
        0,
        0,
        0,
        0,
        1
      ],
      "name": "ground_decal"
    },
    {
      "mesh": 0,
      "name": "ground_decal_0"
    },
    {
      "children": [
        6
      ],
      "matrix": [
        1,
        0,
        0,
        0,
        0,
        1,
        0,
        0,
        0,
        0,
        1,
        0,
        -23.106100000000001,
        16.167310000000001,
        0.10967000000000002,
        1
      ],
      "name": "brit_range_nature"
    },
    {
      "mesh": 1,
      "name": "brit_range_nature_0"
    },
    {
      "children": [
        8
      ],
      "name": "brit_range_struct"
    },
    {
      "mesh": 2,
      "name": "brit_range_struct_0"
    },
    {
      "children": [
        10
      ],
      "name": "brit_range_struct.001"
    },
    {
      "mesh": 3,
      "name": "brit_range_struct.001_0"
    }
  ],
  "samplers": [
    {
      "magFilter": 9729,
      "minFilter": 9987,
      "wrapS": 10497,
      "wrapT": 10497
    }
  ],
  "scene": 0,
  "scenes": [
    {
      "name": "OSG_Scene",
      "nodes": [
        0
      ]
    }
  ],
  "textures": [
    {
      "sampler": 0,
      "source": 0
    },
    {
      "sampler": 0,
      "source": 1
    },
    {
      "sampler": 0,
      "source": 2
    },
    {
      "sampler": 0,
      "source": 3
    },
    {
      "sampler": 0,
      "source": 4
    },
    {
      "sampler": 0,
      "source": 5
    },
    {
      "sampler": 0,
      "source": 6
    },
    {
      "sampler": 0,
      "source": 7
    },
    {
      "sampler": 0,
      "source": 8
    }
  ]
}

