{
  "accessors": [
    {
      "bufferView": 2,
      "componentType": 5126,
      "count": 6024,
      "max": [
        208.33230590820312,
        172.45884704589844,
        128.45872497558594
      ],
      "min": [
        -208.33230590820312,
        -176.48304748535156,
        29.689064025878906
      ],
      "type": "VEC3"
    },
    {
      "bufferView": 2,
      "byteOffset": 72288,
      "componentType": 5126,
      "count": 6024,
      "max": [
        1,
        1,
        1
      ],
      "min": [
        -1,
        -1,
        -1
      ],
      "type": "VEC3"
    },
    {
      "bufferView": 3,
      "componentType": 5126,
      "count": 6024,
      "max": [
        1,
        1,
        1,
        1
      ],
      "min": [
        -1,
        -1,
        -1,
        -1
      ],
      "type": "VEC4"
    },
    {
      "bufferView": 1,
      "componentType": 5126,
      "count": 6024,
      "max": [
        0.99799996614456177,
        0.99642199277877808
      ],
      "min": [
        0.0020000000949949026,
        0.0020000000949949026
      ],
      "type": "VEC2"
    },
    {
      "bufferView": 0,
      "componentType": 5125,
      "count": 18780,
      "max": [
        6023
      ],
      "min": [
        0
      ],
      "type": "SCALAR"
    },
    {
      "bufferView": 2,
      "byteOffset": 144576,
      "componentType": 5126,
      "count": 64,
      "max": [
        10.073195457458496,
        4.1434741020202637,
        100.72994995117188
      ],
      "min": [
        -10.073195457458496,
        -40.408950805664062,
        88.945755004882812
      ],
      "type": "VEC3"
    },
    {
      "bufferView": 2,
      "byteOffset": 145344,
      "componentType": 5126,
      "count": 64,
      "max": [
        0.85589051246643066,
        0.073876753449440002,
        0.99997317790985107
      ],
      "min": [
        -0.85589051246643066,
        -0.67194235324859619,
        0.48512905836105347
      ],
      "type": "VEC3"
    },
    {
      "bufferView": 3,
      "byteOffset": 96384,
      "componentType": 5126,
      "count": 64,
      "max": [
        0.1677900105714798,
        0.99187082052230835,
        0.12753660976886749,
        1
      ],
      "min": [
        -0.14207616448402405,
        -1,
        -0.67194235324859619,
        1
      ],
      "type": "VEC4"
    },
    {
      "bufferView": 1,
      "byteOffset": 48192,
      "componentType": 5126,
      "count": 64,
      "max": [
        0.4271371066570282,
        0.93971544504165649
      ],
      "min": [
        0.29591837525367737,
        0.52823841571807861
      ],
      "type": "VEC2"
    },
    {
      "bufferView": 0,
      "byteOffset": 75120,
      "componentType": 5125,
      "count": 114,
      "max": [
        63
      ],
      "min": [
        0
      ],
      "type": "SCALAR"
    }
  ],
  "asset": {
    "extras": {
      "author": "Renafox (https://sketchfab.com/kryik1023)",
      "license": "CC-BY-NC-4.0 (http://creativecommons.org/licenses/by-nc/4.0/)",
      "source": "https://sketchfab.com/models/8349f26e1e88455da75dd7352b02b794",
      "title": "Supermarine Spitfire"
    },
    "generator": "Sketchfab-3.19.2",
    "version": "2.0"
  },
  "bufferViews": [
    {
      "buffer": 0,
      "byteLength": 75576,
      "byteOffset": 0,
      "name": "floatBufferViews",
      "target": 34963
    },
    {
      "buffer": 0,
      "byteLength": 48704,
      "byteOffset": 75576,
      "byteStride": 8,
      "name": "floatBufferViews",
      "target": 34962
    },
    {
      "buffer": 0,
      "byteLength": 146112,
      "byteOffset": 124280,
      "byteStride": 12,
      "name": "floatBufferViews",
      "target": 34962
    },
    {
      "buffer": 0,
      "byteLength": 97408,
      "byteOffset": 270392,
      "byteStride": 16,
      "name": "floatBufferViews",
      "target": 34962
    }
  ],
  "buffers": [
    {
      "byteLength": 367800,
      "uri": "scene.bin"
    }
  ],
  "images": [
    {
      "uri": "textures/Material_86_baseColor.png"
    },
    {
      "uri": "textures/Material_86_metallicRoughness.png"
    },
    {
      "uri": "textures/Material_86_normal.png"
    },
    {
      "uri": "textures/Material_85_baseColor.png"
    },
    {
      "uri": "textures/Material_85_normal.png"
    },
    {
      "uri": "textures/Material_85_metallicRoughness.png"
    }
  ],
  "materials": [
    {
      "doubleSided": true,
      "name": "Material_85",
      "normalTexture": {
        "index": 4,
        "scale": 1,
        "texCoord": 0
      },
      "occlusionTexture": {
        "index": 5,
        "strength": 1,
        "texCoord": 0
      },
      "pbrMetallicRoughness": {
        "baseColorFactor": [
          1,
          1,
          1,
          1
        ],
        "baseColorTexture": {
          "index": 3,
          "texCoord": 0
        },
        "metallicFactor": 1,
        "metallicRoughnessTexture": {
          "index": 5,
          "texCoord": 0
        },
        "roughnessFactor": 1
      }
    },
    {
      "alphaMode": "BLEND",
      "doubleSided": true,
      "name": "Material_86",
      "normalTexture": {
        "index": 2,
        "scale": 1,
        "texCoord": 0
      },
      "occlusionTexture": {
        "index": 1,
        "strength": 1,
        "texCoord": 0
      },
      "pbrMetallicRoughness": {
        "baseColorFactor": [
          1,
          1,
          1,
          1
        ],
        "baseColorTexture": {
          "index": 0,
          "texCoord": 0
        },
        "metallicFactor": 1,
        "metallicRoughnessTexture": {
          "index": 1,
          "texCoord": 0
        },
        "roughnessFactor": 1
      }
    }
  ],
  "meshes": [
    {
      "name": "Object001_Material #85_0",
      "primitives": [
        {
          "attributes": {
            "NORMAL": 1,
            "POSITION": 0,
            "TANGENT": 2,
            "TEXCOORD_0": 3
          },
          "indices": 4,
          "material": 0,
          "mode": 4
        }
      ]
    },
    {
      "name": "Object002_Material #86_0",
      "primitives": [
        {
          "attributes": {
            "NORMAL": 6,
            "POSITION": 5,
            "TANGENT": 7,
            "TEXCOORD_0": 8
          },
          "indices": 9,
          "material": 1,
          "mode": 4
        }
      ]
    }
  ],
  "nodes": [
    {
      "children": [
        1
      ],
      "name": "RootNode (gltf orientation matrix)",
      "rotation": [
        -0.70710678118654746,
        -0,
        -0,
        0.70710678118654757
      ]
    },
    {
      "children": [
        2
      ],
      "name": "RootNode (model correction matrix)"
    },
    {
      "children": [
        3
      ],
      "matrix": [
        1,
        0,
        0,
        0,
        0,
        0,
        1,
        0,
        0,
        -1,
        0,
        0,
        0,
        0,
        0,
        1
      ],
      "name": "spitfire.FBX"
    },
    {
      "children": [
        4,
        6
      ],
      "name": "RootNode"
    },
    {
      "children": [
        5
      ],
      "matrix": [
        0.6908657655878131,
        0.57357651867545545,
        0.44013006164418028,
        0,
        0.53729963281529802,
        -2.2204460492503131e-16,
        -0.84339143022474805,
        0,
        -0.48374952042902414,
        0.81915198664481381,
        -0.30818245287579926,
        0,
        47.476760864257812,
        72.001350402832031,
        28.375707626342773,
        1
      ],
      "name": "Object001"
    },
    {
      "mesh": 0,
      "name": "Object001_Material #85_0"
    },
    {
      "children": [
        7
      ],
      "matrix": [
        0.6908657655878131,
        0.57357651867545545,
        0.44013006164418028,
        0,
        0.53729963281529802,
        -2.2204460492503131e-16,
        -0.84339143022474805,
        0,
        -0.48374952042902414,
        0.81915198664481381,
        -0.30818245287579926,
        0,
        47.476760864257812,
        72.001350402832031,
        28.375707626342773,
        1
      ],
      "name": "Object002"
    },
    {
      "mesh": 1,
      "name": "Object002_Material #86_0"
    }
  ],
  "samplers": [
    {
      "magFilter": 9729,
      "minFilter": 9987,
      "wrapS": 10497,
      "wrapT": 10497
    }
  ],
  "scene": 0,
  "scenes": [
    {
      "name": "OSG_Scene",
      "nodes": [
        0
      ]
    }
  ],
  "textures": [
    {
      "sampler": 0,
      "source": 0
    },
    {
      "sampler": 0,
      "source": 1
    },
    {
      "sampler": 0,
      "source": 2
    },
    {
      "sampler": 0,
      "source": 3
    },
    {
      "sampler": 0,
      "source": 4
    },
    {
      "sampler": 0,
      "source": 5
    }
  ]
}

