{
  "accessors": [
    {
      "bufferView": 2,
      "componentType": 5126,
      "count": 1711,
      "max": [
        114.04060363769531,
        76.111297607421875,
        373.1842041015625
      ],
      "min": [
        -116.36329650878906,
        -265.22171020507812,
        1.4903000593185425
      ],
      "type": "VEC3"
    },
    {
      "bufferView": 2,
      "byteOffset": 20532,
      "componentType": 5126,
      "count": 1711,
      "max": [
        0.99872773885726929,
        0.99970561265945435,
        0.9982680082321167
      ],
      "min": [
        -0.99812543392181396,
        -0.99527281522750854,
        -0.9989476203918457
      ],
      "type": "VEC3"
    },
    {
      "bufferView": 3,
      "componentType": 5126,
      "count": 1711,
      "max": [
        0.99935001134872437,
        0.99840164184570312,
        0.99953287839889526,
        1
      ],
      "min": [
        -0.99447250366210938,
        -0.99921578168869019,
        -0.99898022413253784,
        -1
      ],
      "type": "VEC4"
    },
    {
      "bufferView": 1,
      "componentType": 5126,
      "count": 1711,
      "max": [
        0.99220001697540283,
        0.99279999732971191
      ],
      "min": [
        0.002099999925121665,
        0.0073000001721084118
      ],
      "type": "VEC2"
    },
    {
      "bufferView": 0,
      "componentType": 5125,
      "count": 7836,
      "max": [
        1710
      ],
      "min": [
        0
      ],
      "type": "SCALAR"
    },
    {
      "bufferView": 2,
      "byteOffset": 41064,
      "componentType": 5126,
      "count": 4,
      "max": [
        339.823486328125,
        330.75289916992188,
        0
      ],
      "min": [
        -313.8662109375,
        -322.93679809570312,
        0
      ],
      "type": "VEC3"
    },
    {
      "bufferView": 2,
      "byteOffset": 41112,
      "componentType": 5126,
      "count": 4,
      "max": [
        0,
        0,
        1
      ],
      "min": [
        0,
        0,
        1
      ],
      "type": "VEC3"
    },
    {
      "bufferView": 3,
      "byteOffset": 27376,
      "componentType": 5126,
      "count": 4,
      "max": [
        1,
        0,
        0,
        1
      ],
      "min": [
        1,
        0,
        0,
        1
      ],
      "type": "VEC4"
    },
    {
      "bufferView": 1,
      "byteOffset": 13688,
      "componentType": 5126,
      "count": 4,
      "max": [
        1,
        1
      ],
      "min": [
        0,
        0
      ],
      "type": "VEC2"
    },
    {
      "bufferView": 0,
      "byteOffset": 31344,
      "componentType": 5125,
      "count": 6,
      "max": [
        3
      ],
      "min": [
        0
      ],
      "type": "SCALAR"
    },
    {
      "bufferView": 2,
      "byteOffset": 41160,
      "componentType": 5126,
      "count": 1203,
      "max": [
        76.360603332519531,
        110.06539916992188,
        114.19560241699219
      ],
      "min": [
        -128.92999267578125,
        -137.0133056640625,
        -15.887299537658691
      ],
      "type": "VEC3"
    },
    {
      "bufferView": 2,
      "byteOffset": 55596,
      "componentType": 5126,
      "count": 1203,
      "max": [
        0.99698871374130249,
        0.99975258111953735,
        0.99410486221313477
      ],
      "min": [
        -0.99984711408615112,
        -0.99801361560821533,
        -0.99999642372131348
      ],
      "type": "VEC3"
    },
    {
      "bufferView": 3,
      "byteOffset": 27440,
      "componentType": 5126,
      "count": 1203,
      "max": [
        0.99875837564468384,
        0.99382889270782471,
        0.99879205226898193,
        1
      ],
      "min": [
        -0.99819046258926392,
        -0.99998456239700317,
        -0.9993976354598999,
        -1
      ],
      "type": "VEC4"
    },
    {
      "bufferView": 1,
      "byteOffset": 13720,
      "componentType": 5126,
      "count": 1203,
      "max": [
        0.82340002059936523,
        0.99519997835159302
      ],
      "min": [
        0.0059000002220273018,
        0.0063000000081956387
      ],
      "type": "VEC2"
    },
    {
      "bufferView": 0,
      "byteOffset": 31368,
      "componentType": 5125,
      "count": 5412,
      "max": [
        1202
      ],
      "min": [
        0
      ],
      "type": "SCALAR"
    },
    {
      "bufferView": 2,
      "byteOffset": 70032,
      "componentType": 5126,
      "count": 2057,
      "max": [
        107.48320007324219,
        111.58740234375,
        248.85319519042969
      ],
      "min": [
        -93.192802429199219,
        -164.84979248046875,
        14.89109992980957
      ],
      "type": "VEC3"
    },
    {
      "bufferView": 2,
      "byteOffset": 94716,
      "componentType": 5126,
      "count": 2057,
      "max": [
        0.99487841129302979,
        0.99239760637283325,
        0.99952596426010132
      ],
      "min": [
        -0.99798882007598877,
        -0.99945026636123657,
        -0.99964135885238647
      ],
      "type": "VEC3"
    },
    {
      "bufferView": 3,
      "byteOffset": 46688,
      "componentType": 5126,
      "count": 2057,
      "max": [
        0.99990683794021606,
        0.99994736909866333,
        0.99065929651260376,
        1
      ],
      "min": [
        -0.99932962656021118,
        -0.99961906671524048,
        -0.99631476402282715,
        1
      ],
      "type": "VEC4"
    },
    {
      "bufferView": 1,
      "byteOffset": 23344,
      "componentType": 5126,
      "count": 2057,
      "max": [
        0.99650001525878906,
        0.98180001974105835
      ],
      "min": [
        0.6525999903678894,
        0.0082999998703598976
      ],
      "type": "VEC2"
    },
    {
      "bufferView": 0,
      "byteOffset": 53016,
      "componentType": 5125,
      "count": 8040,
      "max": [
        2056
      ],
      "min": [
        0
      ],
      "type": "SCALAR"
    },
    {
      "bufferView": 2,
      "byteOffset": 119400,
      "componentType": 5126,
      "count": 497,
      "max": [
        98.476097106933594,
        169.09979248046875,
        143.14259338378906
      ],
      "min": [
        -101.70010375976562,
        -157.20309448242188,
        0
      ],
      "type": "VEC3"
    },
    {
      "bufferView": 2,
      "byteOffset": 125364,
      "componentType": 5126,
      "count": 497,
      "max": [
        0.99560296535491943,
        0.83929067850112915,
        1
      ],
      "min": [
        -0.99898236989974976,
        -0.99370086193084717,
        -0.89548951387405396
      ],
      "type": "VEC3"
    },
    {
      "bufferView": 3,
      "byteOffset": 79600,
      "componentType": 5126,
      "count": 497,
      "max": [
        0.9736139178276062,
        0.99624526500701904,
        0.8583483099937439,
        1
      ],
      "min": [
        -0.99763458967208862,
        -0.99972665309906006,
        -0.99933922290802002,
        -1
      ],
      "type": "VEC4"
    },
    {
      "bufferView": 1,
      "byteOffset": 39800,
      "componentType": 5126,
      "count": 497,
      "max": [
        0.991100013256073,
        0.98309999704360962
      ],
      "min": [
        0.011699999682605267,
        0.014000000432133675
      ],
      "type": "VEC2"
    },
    {
      "bufferView": 0,
      "byteOffset": 85176,
      "componentType": 5125,
      "count": 2016,
      "max": [
        496
      ],
      "min": [
        0
      ],
      "type": "SCALAR"
    },
    {
      "bufferView": 2,
      "byteOffset": 131328,
      "componentType": 5126,
      "count": 325,
      "max": [
        171.42759704589844,
        -40.576301574707031,
        452.19540405273438
      ],
      "min": [
        -160.27439880371094,
        -308.62289428710938,
        288.64840698242188
      ],
      "type": "VEC3"
    },
    {
      "bufferView": 2,
      "byteOffset": 135228,
      "componentType": 5126,
      "count": 325,
      "max": [
        0.99834692478179932,
        0.98553460836410522,
        0.99238675832748413
      ],
      "min": [
        -0.9980437159538269,
        -0.9835212230682373,
        -0.99627619981765747
      ],
      "type": "VEC3"
    },
    {
      "bufferView": 3,
      "byteOffset": 87552,
      "componentType": 5126,
      "count": 325,
      "max": [
        0.97020494937896729,
        0.99387931823730469,
        0.99807733297348022,
        1
      ],
      "min": [
        -0.99711793661117554,
        -0.99849158525466919,
        -0.99856197834014893,
        1
      ],
      "type": "VEC4"
    },
    {
      "bufferView": 1,
      "byteOffset": 43776,
      "componentType": 5126,
      "count": 325,
      "max": [
        0.99000000953674316,
        0.98629999160766602
      ],
      "min": [
        0.14000000059604645,
        0.012299999594688416
      ],
      "type": "VEC2"
    },
    {
      "bufferView": 0,
      "byteOffset": 93240,
      "componentType": 5125,
      "count": 1674,
      "max": [
        324
      ],
      "min": [
        0
      ],
      "type": "SCALAR"
    },
    {
      "bufferView": 2,
      "byteOffset": 139128,
      "componentType": 5126,
      "count": 1138,
      "max": [
        149.625,
        271.73388671875,
        353.18280029296875
      ],
      "min": [
        -168.69869995117188,
        -299.79550170898438,
        -6.6591000556945801
      ],
      "type": "VEC3"
    },
    {
      "bufferView": 2,
      "byteOffset": 152784,
      "componentType": 5126,
      "count": 1138,
      "max": [
        0.99890881776809692,
        0.99553966522216797,
        1
      ],
      "min": [
        -0.99949723482131958,
        -0.99909883737564087,
        -0.99961143732070923
      ],
      "type": "VEC3"
    },
    {
      "bufferView": 3,
      "byteOffset": 92752,
      "componentType": 5126,
      "count": 1138,
      "max": [
        1,
        0.99905878305435181,
        0.9980013370513916,
        1
      ],
      "min": [
        -0.99908488988876343,
        -0.99980968236923218,
        -0.98063468933105469,
        -1
      ],
      "type": "VEC4"
    },
    {
      "bufferView": 1,
      "byteOffset": 46376,
      "componentType": 5126,
      "count": 1138,
      "max": [
        0.49410000443458557,
        0.98519998788833618
      ],
      "min": [
        0.028699999675154686,
        0.36329999566078186
      ],
      "type": "VEC2"
    },
    {
      "bufferView": 0,
      "byteOffset": 99936,
      "componentType": 5125,
      "count": 3210,
      "max": [
        1137
      ],
      "min": [
        0
      ],
      "type": "SCALAR"
    }
  ],
  "asset": {
    "extras": {
      "author": "olmopotums (https://sketchfab.com/olmopotums)",
      "license": "CC-BY-4.0 (http://creativecommons.org/licenses/by/4.0/)",
      "source": "https://sketchfab.com/models/c57f1d68456348238ecf40f80f3fb3be",
      "title": "Patch of Heaven - The White Tree"
    },
    "generator": "Sketchfab-3.19.5",
    "version": "2.0"
  },
  "bufferViews": [
    {
      "buffer": 0,
      "byteLength": 112776,
      "byteOffset": 0,
      "name": "floatBufferViews",
      "target": 34963
    },
    {
      "buffer": 0,
      "byteLength": 55480,
      "byteOffset": 112776,
      "byteStride": 8,
      "name": "floatBufferViews",
      "target": 34962
    },
    {
      "buffer": 0,
      "byteLength": 166440,
      "byteOffset": 168256,
      "byteStride": 12,
      "name": "floatBufferViews",
      "target": 34962
    },
    {
      "buffer": 0,
      "byteLength": 110960,
      "byteOffset": 334696,
      "byteStride": 16,
      "name": "floatBufferViews",
      "target": 34962
    }
  ],
  "buffers": [
    {
      "byteLength": 445656,
      "uri": "scene.bin"
    }
  ],
  "images": [
    {
      "uri": "textures/Mat_B_baseColor.png"
    },
    {
      "uri": "textures/Mat_B_emissive.jpeg"
    },
    {
      "uri": "textures/Mat_A_emissive.jpeg"
    },
    {
      "uri": "textures/Mat_A_baseColor.jpeg"
    },
    {
      "uri": "textures/01___Default_emissive.jpeg"
    },
    {
      "uri": "textures/01___Default_baseColor.jpeg"
    },
    {
      "uri": "textures/Mat_C_emissive.jpeg"
    },
    {
      "uri": "textures/Mat_C_baseColor.jpeg"
    },
    {
      "uri": "textures/Mat_E_emissive.jpeg"
    },
    {
      "uri": "textures/Mat_E_baseColor.jpeg"
    },
    {
      "uri": "textures/Mat_F_baseColor.png"
    },
    {
      "uri": "textures/Mat_F_emissive.jpeg"
    },
    {
      "uri": "textures/Mat_D_baseColor.jpg"
    }
  ],
  "materials": [
    {
      "doubleSided": true,
      "emissiveFactor": [
        0,
        0,
        0
      ],
      "emissiveTexture": {
        "index": 4,
        "texCoord": 0
      },
      "name": "01___Default",
      "pbrMetallicRoughness": {
        "baseColorFactor": [
          1,
          1,
          1,
          1
        ],
        "baseColorTexture": {
          "index": 5,
          "texCoord": 0
        },
        "metallicFactor": 0,
        "roughnessFactor": 0.59999999999999998
      }
    },
    {
      "doubleSided": true,
      "emissiveFactor": [
        0,
        0,
        0
      ],
      "emissiveTexture": {
        "index": 2,
        "texCoord": 0
      },
      "name": "Mat_A",
      "pbrMetallicRoughness": {
        "baseColorFactor": [
          1,
          1,
          1,
          1
        ],
        "baseColorTexture": {
          "index": 3,
          "texCoord": 0
        },
        "metallicFactor": 0,
        "roughnessFactor": 0.59999999999999998
      }
    },
    {
      "alphaMode": "BLEND",
      "doubleSided": true,
      "emissiveFactor": [
        0.29999999999999999,
        0.29999999999999999,
        0.29999999999999999
      ],
      "emissiveTexture": {
        "index": 1,
        "texCoord": 0
      },
      "name": "Mat_B",
      "pbrMetallicRoughness": {
        "baseColorFactor": [
          1,
          1,
          1,
          0.94999999999999996
        ],
        "baseColorTexture": {
          "index": 0,
          "texCoord": 0
        },
        "metallicFactor": 0,
        "roughnessFactor": 0.59999999999999998
      }
    },
    {
      "doubleSided": true,
      "emissiveFactor": [
        0,
        0,
        0
      ],
      "emissiveTexture": {
        "index": 6,
        "texCoord": 0
      },
      "name": "Mat_C",
      "pbrMetallicRoughness": {
        "baseColorFactor": [
          1,
          1,
          1,
          1
        ],
        "baseColorTexture": {
          "index": 7,
          "texCoord": 0
        },
        "metallicFactor": 0,
        "roughnessFactor": 0.59999999999999998
      }
    },
    {
      "doubleSided": true,
      "emissiveFactor": [
        0,
        0,
        0
      ],
      "name": "Mat_D",
      "pbrMetallicRoughness": {
        "baseColorFactor": [
          1,
          1,
          1,
          1
        ],
        "baseColorTexture": {
          "index": 12,
          "texCoord": 0
        },
        "metallicFactor": 0,
        "roughnessFactor": 0.59999999999999998
      }
    },
    {
      "doubleSided": true,
      "emissiveFactor": [
        0,
        0,
        0
      ],
      "emissiveTexture": {
        "index": 8,
        "texCoord": 0
      },
      "name": "Mat_E",
      "pbrMetallicRoughness": {
        "baseColorFactor": [
          1,
          1,
          1,
          1
        ],
        "baseColorTexture": {
          "index": 9,
          "texCoord": 0
        },
        "metallicFactor": 0,
        "roughnessFactor": 0.59999999999999998
      }
    },
    {
      "alphaCutoff": 0.12,
      "alphaMode": "MASK",
      "doubleSided": true,
      "emissiveFactor": [
        0.20000000000000001,
        0.20000000000000001,
        0.20000000000000001
      ],
      "emissiveTexture": {
        "index": 11,
        "texCoord": 0
      },
      "name": "Mat_F",
      "pbrMetallicRoughness": {
        "baseColorFactor": [
          1,
          1,
          1,
          1
        ],
        "baseColorTexture": {
          "index": 10,
          "texCoord": 0
        },
        "metallicFactor": 0,
        "roughnessFactor": 0.59999999999999998
      }
    }
  ],
  "meshes": [
    {
      "primitives": [
        {
          "attributes": {
            "NORMAL": 1,
            "POSITION": 0,
            "TANGENT": 2,
            "TEXCOORD_0": 3
          },
          "indices": 4,
          "material": 1,
          "mode": 4
        }
      ]
    },
    {
      "primitives": [
        {
          "attributes": {
            "NORMAL": 6,
            "POSITION": 5,
            "TANGENT": 7,
            "TEXCOORD_0": 8
          },
          "indices": 9,
          "material": 2,
          "mode": 4
        }
      ]
    },
    {
      "primitives": [
        {
          "attributes": {
            "NORMAL": 11,
            "POSITION": 10,
            "TANGENT": 12,
            "TEXCOORD_0": 13
          },
          "indices": 14,
          "material": 0,
          "mode": 4
        }
      ]
    },
    {
      "primitives": [
        {
          "attributes": {
            "NORMAL": 16,
            "POSITION": 15,
            "TANGENT": 17,
            "TEXCOORD_0": 18
          },
          "indices": 19,
          "material": 3,
          "mode": 4
        }
      ]
    },
    {
      "primitives": [
        {
          "attributes": {
            "NORMAL": 21,
            "POSITION": 20,
            "TANGENT": 22,
            "TEXCOORD_0": 23
          },
          "indices": 24,
          "material": 4,
          "mode": 4
        }
      ]
    },
    {
      "primitives": [
        {
          "attributes": {
            "NORMAL": 26,
            "POSITION": 25,
            "TANGENT": 27,
            "TEXCOORD_0": 28
          },
          "indices": 29,
          "material": 5,
          "mode": 4
        }
      ]
    },
    {
      "primitives": [
        {
          "attributes": {
            "NORMAL": 31,
            "POSITION": 30,
            "TANGENT": 32,
            "TEXCOORD_0": 33
          },
          "indices": 34,
          "material": 6,
          "mode": 4
        }
      ]
    }
  ],
  "nodes": [
    {
      "children": [
        1
      ],
      "name": "RootNode (gltf orientation matrix)",
      "rotation": [
        -0.70710678118654746,
        -0,
        -0,
        0.70710678118654757
      ]
    },
    {
      "children": [
        2
      ],
      "name": "RootNode (model correction matrix)"
    },
    {
      "children": [
        3,
        4,
        5,
        6,
        7,
        8,
        9
      ],
      "name": "Export.obj.cleaner.gles"
    },
    {
      "mesh": 0,
      "name": ""
    },
    {
      "mesh": 1,
      "name": ""
    },
    {
      "mesh": 2,
      "name": ""
    },
    {
      "mesh": 3,
      "name": ""
    },
    {
      "mesh": 4,
      "name": ""
    },
    {
      "mesh": 5,
      "name": ""
    },
    {
      "mesh": 6,
      "name": ""
    }
  ],
  "samplers": [
    {
      "magFilter": 9729,
      "minFilter": 9987,
      "wrapS": 10497,
      "wrapT": 10497
    },
    {
      "magFilter": 9729,
      "minFilter": 9729,
      "wrapS": 10497,
      "wrapT": 10497
    }
  ],
  "scene": 0,
  "scenes": [
    {
      "name": "OSG_Scene",
      "nodes": [
        0
      ]
    }
  ],
  "textures": [
    {
      "sampler": 0,
      "source": 0
    },
    {
      "sampler": 0,
      "source": 1
    },
    {
      "sampler": 0,
      "source": 2
    },
    {
      "sampler": 0,
      "source": 3
    },
    {
      "sampler": 0,
      "source": 4
    },
    {
      "sampler": 0,
      "source": 5
    },
    {
      "sampler": 0,
      "source": 6
    },
    {
      "sampler": 0,
      "source": 7
    },
    {
      "sampler": 0,
      "source": 8
    },
    {
      "sampler": 0,
      "source": 9
    },
    {
      "sampler": 1,
      "source": 10
    },
    {
      "sampler": 0,
      "source": 11
    },
    {
      "sampler": 0,
      "source": 12
    }
  ]
}

