{
   "accessors" : [
      {
         "bufferView" : 0,
         "byteOffset" : 0,
         "componentType" : 5123,
         "count" : 8076,
         "max" : [ 8075 ],
         "min" : [ 0 ],
         "name" : "buffer-0-accessor-indices-buffer-0-mesh-0",
         "type" : "SCALAR"
      },
      {
         "bufferView" : 2,
         "byteOffset" : 0,
         "componentType" : 5126,
         "count" : 8076,
         "max" : [ 7.274586200714111, 10.71898365020752, 4.844048976898193 ],
         "min" : [ -7.274586200714111, -0.2391629964113235, -4.844048976898193 ],
         "name" : "buffer-0-accessor-position-buffer-0-mesh-0",
         "type" : "VEC3"
      },
      {
         "bufferView" : 2,
         "byteOffset" : 96912,
         "componentType" : 5126,
         "count" : 8076,
         "max" : [ 1, 1, 1 ],
         "min" : [ -1, -1, -1 ],
         "name" : "buffer-0-accessor-normal-buffer-0-mesh-0",
         "type" : "VEC3"
      },
      {
         "bufferView" : 1,
         "byteOffset" : 0,
         "componentType" : 5126,
         "count" : 8076,
         "max" : [ 0.9961240291595459, 0 ],
         "min" : [ 0, -0.9949160218238831 ],
         "name" : "buffer-0-accessor-texcoord-buffer-0-mesh-0",
         "type" : "VEC2"
      },
      {
         "bufferView" : 3,
         "byteOffset" : 0,
         "componentType" : 5126,
         "count" : 0,
         "max" : [ 0, 0, 0, 0 ],
         "min" : [ 0, 0, 0, 0 ],
         "name" : "buffer-0-accessor-color-buffer-0-mesh-0",
         "type" : "VEC4"
      }
   ],
   "asset" : {
      "generator" : "Obj2GltfConverter",
      "version" : "2.0"
   },
   "bufferViews" : [
      {
         "buffer" : 0,
         "byteLength" : 16152,
         "byteOffset" : 0,
         "byteStride" : 0,
         "name" : "buffer-0-bufferview-ushort",
         "target" : 34963
      },
      {
         "buffer" : 0,
         "byteLength" : 64608,
         "byteOffset" : 16152,
         "byteStride" : 8,
         "name" : "buffer-0-bufferview-vec2",
         "target" : 34962
      },
      {
         "buffer" : 0,
         "byteLength" : 193824,
         "byteOffset" : 80760,
         "byteStride" : 12,
         "name" : "buffer-0-bufferview-vec3",
         "target" : 34962
      },
      {
         "buffer" : 0,
         "byteLength" : 1,
         "byteOffset" : 0,
         "name" : "buffer-0-bufferview-vec4"
      }
   ],
   "buffers" : [
      {
         "byteLength" : 274592,
         "name" : "buffer-0",
         "uri" : "SandCastle.bin"
      }
   ],
   "images" : [
      {
         "mimeType" : "image/png",
         "name" : "blinn1SG-image",
         "uri" : "SandCastle_BaseColor.png"
      }
   ],
   "materials" : [
      {
         "alphaMode" : "OPAQUE",
         "doubleSided" : true,
         "name" : "blinn1SG",
         "pbrMetallicRoughness" : {
            "baseColorFactor" : [ 1, 1, 1, 1 ],
            "baseColorTexture" : {
               "index" : 0,
               "texCoord" : 0
            },
            "metallicFactor" : 0,
            "roughnessFactor" : 0.9699476628648295
         }
      }
   ],
   "meshes" : [
      {
         "name" : "buffer-0-mesh-0",
         "primitives" : [
            {
               "attributes" : {
                  "NORMAL" : 2,
                  "POSITION" : 1,
                  "TEXCOORD_0" : 3
               },
               "indices" : 0,
               "material" : 0,
               "mode" : 4
            }
         ]
      }
   ],
   "nodes" : [
      {
         "mesh" : 0,
         "name" : "node-0"
      }
   ],
   "samplers" : [
      {
         "name" : "blinn1SG-sampler",
         "wrapS" : 10497,
         "wrapT" : 10497
      }
   ],
   "scenes" : [
      {
         "name" : "scene-0",
         "nodes" : [ 0 ]
      }
   ],
   "textures" : [
      {
         "name" : "blinn1SG-texture",
         "sampler" : 0,
         "source" : 0
      }
   ]
}
